<?xml version="1.0" encoding="iso-8859-1"?>
<!-- Generator: Adobe Illustrator 19.0.0, SVG Export Plug-In . SVG Version: 6.00 Build 0)  -->
<svg xmlns="http://www.w3.org/2000/svg" xmlns:xlink="http://www.w3.org/1999/xlink" version="1.1" id="Capa_1" x="0px" y="0px" viewBox="0 0 316.4 316.4" style="enable-background:new 0 0 316.4 316.4;" xml:space="preserve" width="512px" height="512px">
<g>
	<g>
		<path d="M310.6,60l-58-57.6C251,0.8,249,0,246.6,0H31C15.4,0,3,12.4,3,28v260.4c0,15.6,12.4,28,28,28h254c7.6,0,14.8-2.8,20-8.4    c5.2-5.2,8.4-12.4,8.4-19.6V66C313,64,312.2,61.6,310.6,60z M175.4,62.4c0-2,1.6-3.6,3.6-3.6h40.8c2,0,3.6,1.6,3.6,3.6v40.8    c0,2-1.6,3.6-3.6,3.6H179c-2,0-3.6-1.6-3.6-3.6V62.4z M205.8,284.8h-96c-4.8,0-8.4-3.6-8.4-8.4s3.6-8.4,8.4-8.4h96    c4.8,0,8.4,3.6,8.4,8.4C214.2,280.8,210.6,284.8,205.8,284.8z M205.8,250.8h-96c-4.8,0-8.4-3.6-8.4-8.4s3.6-8.4,8.4-8.4h96    c4.8,0,8.4,3.6,8.4,8.4C214.2,247.2,210.6,250.8,205.8,250.8z M238.2,299.2v-76c0-2.4-1.6-4-4-4H81.4c-2.4,0-4,1.6-4,4v76H60.6    v-76c0-11.6,9.2-20.8,20.8-20.8h152.4c11.6,0,20.8,9.2,20.8,20.8v76H238.2z M255,113.2c0,13.2-10.8,24-24,24H84.6    c-13.2,0-24-10.8-24-24V16.8h17.2v96.4c0,4,3.2,6.8,6.8,6.8H231c4,0,6.8-3.2,6.8-6.8V18c0-0.4,0-0.8-0.4-0.8    c-0.4-0.4-0.4-0.4-0.8-0.4h6.4l12,12V113.2z" fill="#874800"/>
	</g>
</g>
<g>
</g>
<g>
</g>
<g>
</g>
<g>
</g>
<g>
</g>
<g>
</g>
<g>
</g>
<g>
</g>
<g>
</g>
<g>
</g>
<g>
</g>
<g>
</g>
<g>
</g>
<g>
</g>
<g>
</g>
</svg>
