<?xml version="1.0" encoding="iso-8859-1"?>
<!-- Generator: Adobe Illustrator 19.0.0, SVG Export Plug-In . SVG Version: 6.00 Build 0)  -->
<svg version="1.1" id="Capa_1" xmlns="http://www.w3.org/2000/svg" xmlns:xlink="http://www.w3.org/1999/xlink" x="0px" y="0px"
	 viewBox="0 0 512.002 512.002" style="enable-background:new 0 0 512.002 512.002;" xml:space="preserve">
<path style="fill:#A19FA0;" d="M425.948,399.077L224.423,197.552l-26.87,26.87l201.525,201.525c-3.888,3.888-3.888,10.193,0,14.081
	l43.836,43.836c5.978,5.978,15.671,5.978,21.649,0l19.302-19.302c5.978-5.978,5.978-15.671,0-21.649l-43.836-43.836
	C436.141,395.189,429.837,395.189,425.948,399.077z"/>
<path style="fill:#8C8B8B;" d="M478.706,469.723c-5.978,5.978-15.671,5.978-21.649,0l-43.836-43.836
	c-3.889-3.889-3.888-10.193,0-14.081L211.695,210.28l-14.142,14.142l201.525,201.525c-3.888,3.888-3.889,10.193,0,14.081
	l43.836,43.836c5.978,5.978,15.671,5.978,21.649,0l19.302-19.302l0.001-0.001L478.706,469.723z"/>
<path style="fill:#DA5B65;" d="M62.03,34.309l-27.72,27.72c-14.21,14.21-14.21,37.249,0,51.459l179.94,179.94
	c7.377,7.377,19.338,7.377,26.715,0l52.464-52.464c7.377-7.377,7.377-19.338,0-26.715l-179.94-179.94
	C99.279,20.099,76.24,20.099,62.03,34.309z"/>
<path style="fill:#C0344A;" d="M242.534,265.144L62.594,85.204c-14.116-14.116-14.203-36.939-0.275-51.17
	c-0.095,0.093-0.195,0.18-0.289,0.275l-27.72,27.72c-14.21,14.21-14.21,37.249,0,51.459l179.94,179.94
	c7.377,7.377,19.338,7.377,26.715,0l28.284-28.284C261.872,272.521,249.911,272.521,242.534,265.144z"/>
<path style="fill:#BAB8B9;" d="M201.447,373.999L374,201.445c34.502,11.306,73.958,3.272,101.387-24.157
	c28.414-28.414,36.017-69.732,22.865-105.082l-63.973,63.973l-58.458-58.457l63.973-63.973
	C404.445,0.597,363.126,8.2,334.712,36.614c-26.411,26.411-34.845,63.974-25.343,97.528L134.143,309.369
	c-33.554-9.502-71.117-1.068-97.528,25.343C8.201,363.125,0.598,404.444,13.75,439.793l63.973-63.973l58.458,58.458l-63.973,63.973
	c35.349,13.152,76.668,5.549,105.082-22.865C204.718,447.957,212.753,408.502,201.447,373.999z"/>
<path d="M106.925,298.094c-28.567,0-55.42,11.121-75.613,31.314C1.81,358.91-7.843,403.265,6.72,442.408
	c1.878,5.048,8.531,6.491,12.333,2.689l58.67-58.67l47.852,47.852c0,0-58.496,58.496-58.67,58.67
	c-3.778,3.778-2.292,10.48,2.688,12.333c11.982,4.458,24.564,6.719,37.404,6.72c28.557,0,55.406-11.121,75.596-31.311
	c27.567-27.568,37.832-67.254,27.338-104.567l64.358-64.358l115.374,115.373c-0.658,1.854-1,3.826-1,5.851
	c0,4.663,1.816,9.047,5.113,12.344l43.835,43.836c4.308,4.308,10.035,6.68,16.128,6.68s11.82-2.373,16.127-6.68l19.303-19.302
	c4.308-4.308,6.681-10.036,6.681-16.128c0-6.092-2.373-11.82-6.681-16.127l-43.836-43.836c-4.909-4.908-12.039-6.277-18.187-4.104
	l-30.888-30.889c-2.928-2.929-7.677-2.929-10.606,0s-2.929,7.678,0,10.606l34.993,34.994c2.928,2.93,7.678,2.928,10.606,0
	c0.959-0.959,2.518-0.958,3.476,0l43.836,43.836c1.475,1.475,2.287,3.435,2.287,5.521s-0.812,4.046-2.287,5.521l-19.303,19.303
	c-1.474,1.475-3.435,2.287-5.521,2.287s-4.046-0.812-5.521-2.287l-43.836-43.836c-0.948-0.949-0.947-2.527,0-3.474
	c1.407-1.407,2.197-3.314,2.197-5.304c0-1.989-0.79-3.897-2.197-5.303l-119.487-119.49l16.264-16.264l63.28,63.28
	c2.929,2.929,7.678,2.929,10.606,0c2.929-2.929,2.929-7.678,0-10.606l-63.28-63.28l64.36-64.359
	c9.414,2.638,19.135,3.973,28.962,3.973c28.563,0,55.413-11.119,75.604-31.31c29.502-29.502,39.154-73.857,24.591-113
	c-0.891-2.393-2.938-4.169-5.432-4.713c-2.494-0.544-5.095,0.219-6.9,2.025l-58.67,58.67l-47.852-47.852l58.67-58.67
	c1.806-1.806,2.568-4.406,2.025-6.9c-0.544-2.495-2.32-4.542-4.713-5.432C430.425,2.261,417.843,0,405.012,0
	c-28.563,0-55.412,11.12-75.603,31.311c-26.327,26.327-36.995,64.496-28.38,100.565l-39.683,39.683L118.793,29.006
	c-17.111-17.112-44.954-17.111-62.066,0l-27.72,27.72c-17.111,17.112-17.111,44.955,0,62.066l44.669,44.668
	c2.929,2.93,7.678,2.929,10.606,0c2.929-2.929,2.929-7.678,0-10.606l-44.669-44.668c-11.263-11.263-11.263-29.59,0-40.854
	l27.72-27.719c11.264-11.263,29.591-11.263,40.854,0L250.74,182.166l-68.573,68.573l-76.671-76.671
	c-2.929-2.929-7.678-2.929-10.606,0c-2.929,2.929-2.929,7.678,0,10.606l76.671,76.671l-39.684,39.684
	C123.716,299.08,115.342,298.094,106.925,298.094z M139.446,314.672l175.227-175.227c1.921-1.921,2.653-4.732,1.913-7.347
	c-9.087-32.087-0.109-66.643,23.43-90.181C357.374,24.559,380.457,15,405.012,15c6.98,0,13.875,0.777,20.605,2.318l-55.1,55.101
	c-2.929,2.929-2.929,7.678,0,10.606l58.458,58.458c2.929,2.929,7.678,2.929,10.606,0l55.096-55.096
	c6.973,30.555-2.098,63.101-24.594,85.598c-17.357,17.357-40.44,26.916-64.997,26.916c-9.798,0-19.471-1.542-28.751-4.583
	c-2.688-0.88-5.64-0.175-7.639,1.824L196.144,368.696c-1.999,1.999-2.704,4.952-1.824,7.639c10.872,33.178,2.314,69.1-22.333,93.748
	C154.628,487.441,131.549,497,106.997,497c-0.001,0-0.004,0-0.006,0c-6.982,0-13.875-0.778-20.606-2.319l55.1-55.1
	c2.929-2.929,2.929-7.678,0-10.606l-58.458-58.458c-2.929-2.929-7.678-2.929-10.606,0l-55.096,55.096
	c-6.972-30.556,2.098-63.102,24.594-85.598c17.36-17.36,40.446-26.921,65.006-26.921c8.525,0,16.995,1.175,25.175,3.491
	C134.715,317.325,137.525,316.594,139.446,314.672z"/>
<g>
</g>
<g>
</g>
<g>
</g>
<g>
</g>
<g>
</g>
<g>
</g>
<g>
</g>
<g>
</g>
<g>
</g>
<g>
</g>
<g>
</g>
<g>
</g>
<g>
</g>
<g>
</g>
<g>
</g>
</svg>
